<?xml version="1.0" encoding="UTF-8"?>
<svg version="1.1" xmlns="http://www.w3.org/2000/svg" width="2956" height="2956">
<path d="M0 0 C975.48 0 1950.96 0 2956 0 C2956 975.48 2956 1950.96 2956 2956 C1980.52 2956 1005.04 2956 0 2956 C0 1980.52 0 1005.04 0 0 Z " fill="#7F0000" transform="translate(0,0)"/>
<path d="M0 0 C8.25 0 16.5 0 25 0 C29.17125246 8.88603175 33.08513923 17.83120332 36.83163452 26.9017334 C38.12420693 30.03091576 39.42269213 33.15763545 40.7207489 36.2845459 C41.41447306 37.95573784 42.10792013 39.62704483 42.80110168 41.29846191 C46.37059079 49.90264526 49.96968438 58.49435378 53.57067871 67.08538818 C60.40097945 83.38172873 67.20770868 99.68778365 74 116 C82.56933609 136.57891359 91.16861958 157.14514942 99.78222656 177.70556641 C103.14752008 185.73881778 106.51013208 193.77319169 109.87298584 201.8074646 C111.74855114 206.28835414 113.62428391 210.76917358 115.5 215.25 C116.25000081 217.04166633 117.00000081 218.833333 117.75 220.625 C118.12125 221.511875 118.4925 222.39875 118.875 223.3125 C156 312 193.125 400.6875 321.37495422 707.06239319 C322.1251044 708.8544169 322.87525698 710.64643961 323.62541199 712.4384613 C325.49813414 716.91215683 327.37081458 721.38586981 329.2434082 725.85961914 C332.64550675 733.98734031 336.04790769 742.11493421 339.45188904 750.24186707 C340.60273316 752.9895624 341.75340752 755.73732878 342.90405273 758.48510742 C344.41730642 762.09879515 345.93123542 765.71219897 347.44555664 769.32543945 C351.00814099 777.82922268 354.55875067 786.33760905 358.078125 794.859375 C367.06962786 816.6162426 376.25858494 838.25617964 387.06591797 859.18945312 C387.68888294 860.39695659 388.30770204 861.60660794 388.92236328 862.81835938 C398.88876786 882.44612817 410.86202367 900.96221389 426 917 C426.69609375 917.76054688 427.3921875 918.52109375 428.109375 919.3046875 C439.84446885 931.68221349 456.42866914 941.67933504 473 946 C474.08925781 946.31453125 475.17851563 946.6290625 476.30078125 946.953125 C489.34679809 950.50429953 502.72288789 951.49961303 516.15356445 952.67456055 C519 953 519 953 523 954 C523 962.25 523 970.5 523 979 C398.59 979 274.18 979 146 979 C146 970.42 146 961.84 146 953 C150.021875 952.7525 154.04375 952.505 158.1875 952.25 C183.21349408 950.48424181 209.91733577 946.77663852 229 929 C239.45710238 916.69852196 243.35617005 903.2152173 242.22753906 887.19433594 C241.60078457 881.15005553 240.15362952 875.30214825 238.62402344 869.43261719 C237.98573571 866.94439381 237.40000328 864.44778715 236.8203125 861.9453125 C230.14292181 833.91615795 219.12275774 807.11206401 207.94970703 780.62792969 C205.87885105 775.71846525 203.82754303 770.80093145 201.77734375 765.8828125 C195.56905415 751.00004341 189.32756194 736.13135835 183.05078125 721.27734375 C182.43143456 719.81155128 182.43143456 719.81155128 181.79957581 718.31614685 C179.83367337 713.66456954 177.86618099 709.01367529 175.89575195 704.36401367 C169.51119785 689.2764049 163.26478938 674.13990766 157 659 C34.57 659 -87.86 659 -214 659 C-226.75368777 687.90370475 -226.75368777 687.90370475 -239.21777344 716.92758179 C-241.67376282 722.72609645 -244.13794261 728.5211304 -246.6015625 734.31640625 C-247.0774884 735.43634476 -247.55341431 736.55628326 -248.04376221 737.7101593 C-251.66135968 746.21775253 -255.31348443 754.70957489 -259 763.1875 C-259.49113281 764.31889404 -259.98226562 765.45028809 -260.48828125 766.6159668 C-262.59247057 771.46236968 -264.69819817 776.30808921 -266.80957031 781.15136719 C-283.69306249 819.70357057 -283.69306249 819.70357057 -296.39892578 859.77148438 C-296.95334666 861.82703018 -297.5794914 863.83796266 -298.24609375 865.859375 C-300.94453577 874.7110118 -301.41009684 883.09143257 -301.5 892.3125 C-301.52779541 894.08379272 -301.52779541 894.08379272 -301.55615234 895.89086914 C-301.47708272 906.91643049 -298.8591603 916.57251468 -291.30859375 924.85546875 C-281.94038119 934.04591637 -269.59539718 938.68030367 -257.375 942.8125 C-256.55354492 943.09037354 -255.73208984 943.36824707 -254.88574219 943.65454102 C-241.61764345 947.93528705 -228.17792027 949.72259419 -214.375 951.125 C-211.94208416 951.37741321 -209.50942682 951.6319968 -207.07705688 951.88961792 C-205.57934371 952.04773246 -204.08128666 952.2026341 -202.58285522 952.35379028 C-199.27685923 952.69809194 -196.23645408 953.19088648 -193 954 C-193 962.25 -193 970.5 -193 979 C-292.33 979 -391.66 979 -494 979 C-494 970.42 -494 961.84 -494 953 C-490.184375 952.2575 -486.36875 951.515 -482.4375 950.75 C-456.07797179 945.50495714 -432.10797356 938.1979582 -411 921 C-410.22269531 920.38769531 -409.44539063 919.77539062 -408.64453125 919.14453125 C-388.27795334 902.23846923 -375.87366397 876.07132773 -365.5 852.3125 C-364.8020117 850.725331 -364.10342911 849.13842325 -363.40429688 847.55175781 C-362.32442839 845.10050057 -361.24510716 842.64901459 -360.16809082 840.19650269 C-357.88346231 834.99495571 -355.57694968 829.80383477 -353.25 824.62109375 C-342.45043486 800.54415888 -332.07324939 776.2892834 -321.70973206 752.02206421 C-318.12508753 743.62871783 -314.53226729 735.23890483 -310.93359375 726.8515625 C-301.09254033 703.91369366 -291.27310792 680.966908 -281.5 658 C-273.7118834 639.69784281 -265.90056801 621.40582348 -258.0625 603.125 C-257.56605988 601.96711975 -257.06961975 600.8092395 -256.55813599 599.61627197 C-252.53639155 590.23679516 -248.51304095 580.85800751 -244.48962402 571.47924805 C-240.97149757 563.27815431 -237.45400903 555.0767874 -233.9375 546.875 C-233.19271896 545.13793793 -233.19271896 545.13793793 -232.43289185 543.36578369 C-225.09733202 526.25429342 -217.78977193 509.1310419 -210.5 492 C-202.7118834 473.69784281 -194.90056801 455.40582348 -187.0625 437.125 C-186.56605988 435.96711975 -186.06961975 434.8092395 -185.55813599 433.61627197 C-181.53639155 424.23679516 -177.51304095 414.85800751 -173.48962402 405.47924805 C-169.97149757 397.27815431 -166.45400903 389.0767874 -162.9375 380.875 C-162.44097931 379.71695862 -161.94445862 378.55891724 -161.43289185 377.36578369 C-154.09733202 360.25429342 -146.78977193 343.1310419 -139.5 326 C-131.7118834 307.69784281 -123.90056801 289.40582348 -116.0625 271.125 C-115.56605988 269.96711975 -115.06961975 268.8092395 -114.55813599 267.61627197 C-110.53639155 258.23679516 -106.51304095 248.85800751 -102.48962402 239.47924805 C-98.97149757 231.27815431 -95.45400903 223.0767874 -91.9375 214.875 C-91.19271896 213.13793793 -91.19271896 213.13793793 -90.43289185 211.36578369 C-82.62017686 193.14124466 -74.84126416 174.90248774 -67.07751465 156.65704346 C-56.68654234 132.23946253 -46.23314297 107.84878817 -35.77148438 83.46142578 C-32.02860035 74.7359857 -28.2889374 66.00916576 -24.54940796 57.2822876 C-22.75314656 53.09046869 -20.95664235 48.89875386 -19.16015625 44.70703125 C-18.47021362 43.09716849 -17.78027221 41.48730521 -17.09033203 39.87744141 C-11.39355469 26.58496094 -5.69677734 13.29248047 0 0 Z " fill="#FDFDFD" transform="translate(677,990)"/>
<path d="M0 0 C1.07145264 0.00243713 2.14290527 0.00487427 3.24682617 0.00738525 C19.18857641 0.04987519 34.95621399 0.48887825 50.8125 2.25 C52.41004258 2.40870051 54.0076952 2.56629819 55.60546875 2.72265625 C64.01715786 3.58560477 72.25203452 5.01107664 80.52246094 6.77734375 C83.19971218 7.32991927 85.88388133 7.83769931 88.5703125 8.34375 C102.23853496 10.93956189 115.5472157 14.05483565 128.8125 18.25 C130.04564941 18.63961914 131.27879883 19.02923828 132.54931641 19.43066406 C159.65152177 28.04752241 185.25921207 38.74290548 210.8125 51.25 C217.77888807 54.65815008 224.756193 58.03133365 231.8125 61.25 C232.90175781 61.74757813 233.99101562 62.24515625 235.11328125 62.7578125 C245.8623027 67.00984588 259.07615022 67.03290168 269.9375 63.1875 C288.45283129 54.7970081 299.25978936 37.32710014 306.1875 18.9375 C308.4377605 12.74599377 310.06403657 6.66103259 311.8125 0.25 C320.0625 0.25 328.3125 0.25 336.8125 0.25 C336.91796143 2.07426514 337.02342285 3.89853027 337.13208008 5.77807617 C339.62691218 49.14681759 339.62691218 49.14681759 342.375 92.5 C342.42685455 93.28498871 342.47870911 94.06997742 342.53213501 94.87875366 C343.13460975 103.96115372 343.79290939 113.03879638 344.48852539 122.11450195 C346.11836784 143.41390341 347.5687465 164.71482432 348.83364868 186.03887939 C350.8881877 220.64223097 353.22614273 255.22153808 355.73513222 289.79478931 C355.99001401 293.31056709 356.2432695 296.82646123 356.49642944 300.34236336 C356.67071545 302.75032265 356.84794258 305.15805263 357.02539062 307.56578064 C357.13074467 309.02317384 357.23597657 310.48057587 357.34106445 311.93798828 C357.43257278 313.18814728 357.52408112 314.43830627 357.61836243 315.72634888 C357.81137145 319.22951649 357.8125 322.74151944 357.8125 326.25 C350.5525 326.25 343.2925 326.25 335.8125 326.25 C334.70455078 322.85654297 334.70455078 322.85654297 333.57421875 319.39453125 C313.54984905 258.31809035 288.71344172 199.80702226 246.8125 150.25 C246.090625 149.39535156 245.36875 148.54070312 244.625 147.66015625 C233.80546024 135.2979868 222.00399395 123.08653344 208.8125 113.25 C208.19004395 112.77820312 207.56758789 112.30640625 206.92626953 111.8203125 C190.60188628 99.48786793 173.32959289 88.94721413 154.8125 80.25 C154.16265137 79.93643555 153.51280273 79.62287109 152.84326172 79.29980469 C133.64182437 70.06177463 112.69737139 62.54487275 91.8125 58.25 C91.00941406 58.08306641 90.20632813 57.91613281 89.37890625 57.74414062 C64.0200035 52.52540655 39.0327926 50.99770772 13.1875 50.9375 C12.0670932 50.93454926 10.9466864 50.93159851 9.79232788 50.92855835 C-8.56020742 50.91760025 -26.10044716 52.06796138 -44.1875 55.25 C-45.68956288 55.48268809 -47.19210401 55.71233146 -48.6953125 55.9375 C-112.07234262 66.34851111 -174.53959055 99.898431 -216.1875 149.25 C-217.23744141 150.48556641 -217.23744141 150.48556641 -218.30859375 151.74609375 C-237.79831331 175.12680902 -254.05212719 200.80469544 -267.21777344 228.24560547 C-268.2219131 230.32113081 -269.2539762 232.38115913 -270.2890625 234.44140625 C-284.62290349 263.35512162 -294.66849881 294.66324679 -302.3671875 325.93017578 C-303.15612641 329.12303033 -303.96663256 332.30970958 -304.78125 335.49609375 C-313.66447759 370.72897086 -318.26437334 407.07506427 -321.1875 443.25 C-321.29336426 444.53406738 -321.39922852 445.81813477 -321.50830078 447.14111328 C-324.78048893 488.82910138 -324.83226926 531.59467929 -321.1875 573.25 C-320.99056383 575.7799229 -320.79395555 578.30987135 -320.59765625 580.83984375 C-317.41410807 619.40862755 -309.80281229 657.3503735 -298.1875 694.25 C-297.87055176 695.2719043 -297.55360352 696.29380859 -297.22705078 697.34667969 C-290.6787857 718.34593724 -282.46932149 738.79495011 -272.22070312 758.2734375 C-271.08086481 760.45399776 -269.96990858 762.64812879 -268.859375 764.84375 C-256.3290712 789.40623382 -240.22798744 812.57942784 -221.453125 832.80078125 C-219.47992483 834.93387867 -217.57455297 837.10358987 -215.6875 839.3125 C-209.05875225 846.90148691 -201.89031102 853.70051663 -194.015625 859.98046875 C-191.14509026 862.28403323 -188.35764786 864.66829548 -185.5625 867.0625 C-123.03492502 918.95558972 -43.18728405 937.4532135 36.25 937.5 C37.44293671 937.50100708 38.63587341 937.50201416 39.86495972 937.50305176 C57.36872609 937.49306915 74.51090975 937.13359838 91.8125 934.25 C92.76157227 934.0948291 93.71064453 933.9396582 94.68847656 933.77978516 C99.99677618 932.88779442 105.26774973 931.87465205 110.52929688 930.73974609 C112.62522838 930.29016968 114.7248728 929.87065687 116.828125 929.45703125 C143.94051206 923.86461479 170.4558308 912.97474849 194.92285156 900.23388672 C196.84773977 899.23165164 198.77923295 898.2429274 200.7109375 897.25390625 C219.71669802 887.42863038 236.80465161 874.38088981 252.8125 860.25 C253.75351563 859.42113281 254.69453125 858.59226562 255.6640625 857.73828125 C263.41038197 850.73797935 270.79573483 843.3703022 278.1875 836 C278.7097818 835.48039703 279.2320636 834.96079407 279.77017212 834.42544556 C285.67031225 828.5482573 291.43019889 822.61202063 296.8125 816.25 C297.75040287 815.16718922 298.68917338 814.08512922 299.62890625 813.00390625 C311.07520103 799.7269473 322.26699746 786.25670126 332.8125 772.25 C333.39177246 771.48220215 333.97104492 770.7144043 334.56787109 769.92333984 C344.62622195 756.59343568 344.62622195 756.59343568 354.39453125 743.05078125 C355.8125 741.25 355.8125 741.25 357.8125 740.25 C359.96728516 741.32983398 359.96728516 741.32983398 362.6015625 742.99609375 C364.01308594 743.88071289 364.01308594 743.88071289 365.453125 744.78320312 C366.93039062 745.72583008 366.93039062 745.72583008 368.4375 746.6875 C369.43007812 747.31205078 370.42265625 747.93660156 371.4453125 748.58007812 C373.90565064 750.12961801 376.3610212 751.68649569 378.8125 753.25 C377.21885078 759.27598612 374.05403078 764.18462005 370.8125 769.4375 C370.2030957 770.43128662 369.59369141 771.42507324 368.96582031 772.44897461 C340.78041905 818.01208008 307.84884031 864.54225129 266.81640625 899.5234375 C264.56016614 901.46741046 262.37886107 903.48323518 260.1875 905.5 C253.98697127 911.08520908 247.44919923 916.19797486 240.8125 921.25 C239.91289551 921.93497559 239.91289551 921.93497559 238.99511719 922.63378906 C208.73415883 945.5370534 175.19543114 963.71522905 139.39746094 976.32714844 C137.1372747 977.13405286 134.89926371 977.97845427 132.6640625 978.8515625 C118.17185619 984.41760867 102.89878567 987.71233227 87.8125 991.25 C86.8647168 991.47461914 85.91693359 991.69923828 84.94042969 991.93066406 C68.48290672 995.76146204 51.59801154 997.50407214 34.8125 999.25 C33.98063171 999.33967041 33.14876343 999.42934082 32.29168701 999.52172852 C17.24930294 1001.11588951 2.32938715 1001.5634811 -12.79248047 1001.51074219 C-16.42041892 1001.50005034 -20.04785791 1001.51069591 -23.67578125 1001.5234375 C-45.93344295 1001.53791782 -68.07098655 1000.16372159 -90.125 997.125 C-90.88455994 997.02184479 -91.64411987 996.91868958 -92.42669678 996.81240845 C-177.47277901 985.10268983 -261.95610801 948.77326904 -325.60546875 890.5859375 C-327.00582835 889.31904636 -328.41220407 888.05816092 -329.84838867 886.83203125 C-335.67780414 881.8420456 -341.12847723 876.49516967 -346.55053711 871.07226562 C-348.11358734 869.51139673 -349.68447365 867.95872112 -351.25585938 866.40625 C-356.89538559 860.7979403 -362.14214783 855.06278151 -367.10327148 848.83154297 C-369.10489268 846.35231812 -371.18317118 843.97986913 -373.3203125 841.6171875 C-392.53266091 820.20372066 -408.55226738 794.50570014 -422.1875 769.25 C-422.70618652 768.30012207 -423.22487305 767.35024414 -423.75927734 766.37158203 C-464.54442715 691.37242716 -484.01139886 606.48813065 -483.5100708 521.37701416 C-483.49662022 518.28574415 -483.50191738 515.19461773 -483.50693893 512.10333157 C-483.54092353 484.30293714 -481.8563415 456.82867724 -478.1875 429.25 C-478.05649902 428.26064453 -477.92549805 427.27128906 -477.79052734 426.25195312 C-466.43114338 343.12378895 -432.73859606 260.81967645 -383.1875 193.25 C-382.43339844 192.21230469 -381.67929688 191.17460938 -380.90234375 190.10546875 C-372.61873077 178.87523482 -363.84235609 167.92004628 -354.3828125 157.65625 C-353.16860919 156.32537947 -351.96262635 154.98628848 -350.79370117 153.61547852 C-345.75718564 147.72320375 -340.33309836 142.24327138 -334.8449707 136.77709961 C-333.25291034 135.19040054 -331.6662701 133.59842258 -330.08007812 132.00585938 C-324.62203174 126.54392481 -319.08795531 121.23692246 -313.1875 116.25 C-312.16592495 115.3615292 -311.14504944 114.47225318 -310.125 113.58203125 C-301.76011562 106.40736313 -293.10087855 99.72813741 -284.1875 93.25 C-283.44145508 92.70472656 -282.69541016 92.15945313 -281.92675781 91.59765625 C-233.76162131 56.56111009 -178.47589677 30.47727682 -120.75537109 15.90966797 C-118.58484426 15.35207494 -116.42577763 14.77009049 -114.26953125 14.16015625 C-92.35256655 7.99368822 -69.99529165 4.85914787 -47.40078735 2.48626709 C-45.87334746 2.3232138 -44.34649273 2.15461653 -42.82015991 1.98150635 C-28.51950885 0.36243146 -14.38562391 -0.07175501 0 0 Z " fill="#FDFDFD" transform="translate(2393.1875,989.75)"/>
<path d="M0 0 C3.46388861 2.74979264 4.71003413 6.59544036 6.30859375 10.57421875 C6.78613098 11.73590828 6.78613098 11.73590828 7.27331543 12.92106628 C7.96774477 14.61290985 8.65870788 16.30617927 9.34664917 18.00067139 C10.45763363 20.73709029 11.57732863 23.46979597 12.69946289 26.20166016 C13.89405721 29.11038396 15.08801303 32.01935569 16.27928162 34.92944336 C20.37067487 44.92356887 24.52062518 54.89297428 28.67922974 64.85928345 C29.94830705 67.90090144 31.216337 70.94295427 32.48413086 73.98510742 C38.34297803 88.04138389 44.21982068 102.09008466 50.10421753 116.13568115 C56.51265004 131.43270518 62.89526184 146.74038864 69.27050781 162.05126953 C75.1652209 176.20720292 81.07452259 190.35691754 87 204.5 C93.77695255 220.67540531 100.52910397 236.86101872 107.27050781 253.05126953 C113.52812045 268.07869264 119.80387924 283.09839474 126.09442139 298.11206055 C133.12028753 314.88199163 140.11603246 331.66440155 147.1015625 348.45117188 C147.49752625 349.40221802 147.89348999 350.35326416 148.30145264 351.33312988 C149.07621354 353.19443934 149.85035713 355.0560059 150.62384033 356.91784668 C152.51406659 361.46169315 154.421678 365.99695747 156.36230469 370.51953125 C156.73680756 371.39589233 157.11131042 372.27225342 157.49716187 373.1751709 C158.20449122 374.82762169 158.91618401 376.47821398 159.63296509 378.12658691 C162 383.66571874 162 383.66571874 162 387 C53.76 387 -54.48 387 -166 387 C-156.83091869 364.07729672 -156.83091869 364.07729672 -152.99609375 355.3515625 C-152.55947418 354.35039398 -152.12285461 353.34922546 -151.67300415 352.31771851 C-150.74380774 350.18720753 -149.81341448 348.05721817 -148.88186646 345.92773438 C-146.34849202 340.13483963 -143.82609058 334.33717602 -141.3046875 328.5390625 C-140.78445511 327.34283264 -140.26422272 326.14660278 -139.72822571 324.91412354 C-134.1068409 311.97089003 -128.57973527 298.98789222 -123.0625 286 C-116.58373969 270.7523917 -110.08957111 255.5125917 -103.5 240.3125 C-103.17750275 239.56851959 -102.85500549 238.82453918 -102.5227356 238.05801392 C-102.20336029 237.32126434 -101.88398499 236.58451477 -101.55493164 235.82543945 C-100.92202096 234.36540442 -100.28912687 232.90536219 -99.65625 231.4453125 C-99.34880356 230.73608139 -99.04135712 230.02685028 -98.72459412 229.29612732 C-95.46322299 221.7684173 -92.22908089 214.22910701 -89 206.6875 C-88.55477493 205.64770996 -88.55477493 205.64770996 -88.10055542 204.58691406 C-86.82770226 201.61399491 -85.55502805 198.64099923 -84.28257751 195.66790771 C-79.89166373 185.40893846 -75.49460844 175.15260085 -71.09838867 164.89590454 C-68.50422975 158.84343406 -65.91033259 152.79085141 -63.31640625 146.73828125 C-62.25928011 144.27164595 -61.20214982 141.80501243 -60.14501953 139.33837891 C-59.61810295 138.1089071 -59.09118645 136.87943525 -58.56427002 135.64996338 C-57.02966309 132.06921387 -55.49505615 128.48846436 -53.96044922 124.90771484 C-53.46512192 123.75194946 -52.96979462 122.59618408 -52.4594574 121.40539551 C-51.46276838 119.07979119 -50.46607445 116.75418898 -49.46937561 114.42858887 C-46.9919196 108.64791725 -44.51454791 102.86720952 -42.03735352 97.08642578 C-37.38983481 86.24121302 -32.74151554 75.39634537 -28.09033203 64.55270386 C-26.18212302 60.10393902 -24.27432227 55.65499913 -22.36660767 51.20602226 C-21.07352184 48.1905059 -19.780139 45.17511748 -18.48632812 42.15991211 C-17.0528144 38.81909218 -15.61996158 35.47798994 -14.1875 32.13671875 C-13.74092041 31.09546844 -13.29434082 30.05421814 -12.83422852 28.98141479 C-10.72970254 24.06738573 -8.63778677 19.14866791 -6.57421875 14.21728516 C-6.20079346 13.32507767 -5.82736816 12.43287018 -5.44262695 11.5136261 C-4.7499665 9.85494546 -4.05956234 8.19532011 -3.37182617 6.53459167 C-1.10849948 1.10849948 -1.10849948 1.10849948 0 0 Z " fill="#800000" transform="translate(651,1209)"/>
<path d="M0 0 C19.47 0 38.94 0 59 0 C59 329.01 59 658.02 59 997 C39.53 997 20.06 997 0 997 C0 667.99 0 338.98 0 0 Z " fill="#FDFDFD" transform="translate(1490,972)"/>
<path d="M0 0 C975.48 0 1950.96 0 2956 0 C2956 975.48 2956 1950.96 2956 2956 C1980.52 2956 1005.04 2956 0 2956 C0 1980.52 0 1005.04 0 0 Z M2 3 C2 976.83 2 1950.66 2 2954 C975.83 2954 1949.66 2954 2953 2954 C2953 1980.17 2953 1006.34 2953 3 C1979.17 3 1005.34 3 2 3 Z " fill="#342A28" transform="translate(0,0)"/>
</svg>
